<svg width="28" height="28" viewBox="0 0 28 28" fill="none" xmlns="http://www.w3.org/2000/svg">
<path d="M13.9875 0.38437C6.25938 0.381245 0 6.6375 0 14.3594C0 20.4656 3.91562 25.6562 9.36875 27.5625C10.1031 27.7469 9.99063 27.225 9.99063 26.8687V24.4469C5.75 24.9437 5.57812 22.1375 5.29375 21.6687C4.71875 20.6875 3.35938 20.4375 3.76562 19.9687C4.73125 19.4719 5.71562 20.0937 6.85625 21.7781C7.68125 23 9.29062 22.7937 10.1062 22.5906C10.2844 21.8562 10.6656 21.2 11.1906 20.6906C6.79688 19.9031 4.96562 17.2219 4.96562 14.0344C4.96562 12.4875 5.475 11.0656 6.475 9.91875C5.8375 8.02812 6.53438 6.40937 6.62813 6.16874C8.44375 6.00624 10.3312 7.46875 10.4781 7.58437C11.5094 7.30625 12.6875 7.15937 14.0063 7.15937C15.3313 7.15937 16.5125 7.31249 17.5531 7.59374C17.9062 7.32499 19.6562 6.06875 21.3438 6.22187C21.4344 6.46249 22.1156 8.04375 21.5156 9.90937C22.5281 11.0594 23.0438 12.4937 23.0438 14.0437C23.0438 17.2375 21.2 19.9219 16.7938 20.6969C17.1712 21.068 17.4708 21.5107 17.6753 21.9989C17.8797 22.4872 17.9848 23.0113 17.9844 23.5406V27.0562C18.0094 27.3375 17.9844 27.6156 18.4531 27.6156C23.9875 25.75 27.9719 20.5219 27.9719 14.3625C27.9719 6.63749 21.7094 0.38437 13.9875 0.38437Z" fill="#1389A7"/>
</svg>
