<svg width="26" height="26" viewBox="0 0 26 26" fill="none" xmlns="http://www.w3.org/2000/svg">
<path d="M23.4906 0.5H2.50938C1.4 0.5 0.5 1.4 0.5 2.50938V23.4906C0.5 24.6 1.4 25.5 2.50938 25.5H23.4906C24.6 25.5 25.5 24.6 25.5 23.4906V2.50938C25.5 1.4 24.6 0.5 23.4906 0.5ZM23.4906 23.5C9.49688 23.4969 2.5 23.4937 2.5 23.4906C2.50312 9.49688 2.50625 2.5 2.50938 2.5C16.5031 2.50312 23.5 2.50625 23.5 2.50938C23.4969 16.5031 23.4937 23.5 23.4906 23.5ZM4.20625 9.87187H7.91562V21.8031H4.20625V9.87187ZM6.0625 8.24063C7.24687 8.24063 8.2125 7.27812 8.2125 6.09062C8.2125 5.80828 8.15689 5.52871 8.04884 5.26786C7.94079 5.00701 7.78243 4.76999 7.58278 4.57035C7.38313 4.3707 7.14612 4.21233 6.88527 4.10428C6.62442 3.99624 6.34484 3.94063 6.0625 3.94063C5.78016 3.94063 5.50058 3.99624 5.23973 4.10428C4.97888 4.21233 4.74187 4.3707 4.54222 4.57035C4.34257 4.76999 4.18421 5.00701 4.07616 5.26786C3.96811 5.52871 3.9125 5.80828 3.9125 6.09062C3.90937 7.27812 4.87187 8.24063 6.0625 8.24063ZM13.9469 15.9C13.9469 14.3438 14.2437 12.8375 16.1719 12.8375C18.0719 12.8375 18.1 14.6156 18.1 16V21.8031H21.8062V15.2594C21.8062 12.0469 21.1125 9.575 17.3594 9.575C15.5562 9.575 14.3469 10.5656 13.85 11.5031H13.8V9.87187H10.2406V21.8031H13.9469V15.9Z" fill="#1389A7"/>
</svg>
